<svg viewBox="0 0 16 16" width="24px" height="24px" xmlns="http://www.w3.org/2000/svg">
  <title>Menu</title>
  <path fill="currentColor" d="M 14 3 C 14 3.553 13.557 4 13.011 4 L 2.989 4 C 2.443 4.001 2 3.553 2 3 L 2 3 C 2 2.448 2.443 2 2.989 2 L 13.01 2 C 13.557 2 14 2.448 14 3 L 14 3 Z"/>
  <path fill="currentColor" d="M 14 8 C 14 8.553 13.557 9 13.011 9 L 2.989 9 C 2.443 9.001 2 8.553 2 8 L 2 8 C 2 7.448 2.443 7 2.989 7 L 13.01 7 C 13.557 7 14 7.448 14 8 L 14 8 Z"/>
  <path fill="currentColor" d="M 14 13 C 14 13.553 13.557 14 13.011 14 L 2.989 14 C 2.443 14.001 2 13.553 2 13 L 2 13 C 2 12.448 2.443 12 2.989 12 L 13.01 12 C 13.557 12 14 12.448 14 13 L 14 13 Z"/>
</svg>
